<svg version="1.1" xmlns="http://www.w3.org/2000/svg" xmlns:xlink="http://www.w3.org/1999/xlink" width="147.5" height="236.41032" viewBox="0,0,147.5,236.41032"><g transform="translate(-406.75,-181.33967)"><g data-paper-data="{&quot;isPaintingLayer&quot;:true}" fill-rule="nonzero" stroke-linecap="butt" stroke-linejoin="miter" stroke-miterlimit="10" stroke-dasharray="" stroke-dashoffset="0" style="mix-blend-mode: normal"><path d="M484.37814,183.69672c5.3033,5.3033 0,10.6066 0,10.6066l-2,2c-2.10414,2.06152 -8.26602,4.87931 -7.90014,8.49533c1.60032,4.05067 3.09993,4.67773 6.35176,7.4013c0.96615,0.8092 1.60341,1.98532 2.63041,2.71575c1.2148,0.864 2.77366,1.15247 4,2c3.6064,2.49238 6.20835,6.5775 9.52869,9.41841c1.37101,1.17304 3.03402,2.00048 4.30581,3.28042c5.99712,6.03555 12.65863,15.57481 14.18334,24.18412c0.94214,5.3198 0.11809,11.72084 0.04065,17.11774c-0.67506,2.70026 -0.60857,5.53537 -1.04065,8.28499c-0.32727,2.08263 -1.69193,3.91445 -2,6c-0.4146,2.80673 -0.42065,5.72674 -1.36902,8.40073c-1.229,3.46524 -2.71776,6.85418 -4.4959,10.07234c-0.77091,1.39523 -2.10332,2.42274 -2.89489,3.80636c-0.61005,1.06633 -0.62175,2.41459 -1.26346,3.46218c-0.66445,1.08469 -1.79127,1.81381 -2.57982,2.81193c-1.82044,2.30426 -3.22888,4.92449 -5.13416,7.1591c-2.68202,3.1456 -2.99949,2.83666 -6.33411,5.20853c-3.9694,2.82338 -6.56619,5.28497 -10.97769,7.58566c0,0 -6.70821,3.3541 -10.06231,-3.3541c-3.3541,-6.70821 3.3541,-10.06231 3.3541,-10.06231c3.65184,-1.69273 5.62331,-3.97674 9.02231,-6.41434c1.87818,-1.34695 2.43486,-1.25565 3.66589,-2.79147c1.75014,-2.18346 3.10237,-4.66819 4.86584,-6.8409c0.38895,-0.47922 1.11098,-0.65391 1.42018,-1.18807c0.44128,-0.76234 0.29994,-1.77279 0.73654,-2.53782c0.86213,-1.51066 2.25657,-2.6753 3.10511,-4.19364c1.40949,-2.52205 2.40731,-5.25475 3.5041,-7.92766c0.71302,-1.73764 0.30144,-3.75017 0.63098,-5.59927c0.36989,-2.07548 1.7466,-3.9071 2,-6c0.31149,-2.57269 0.33082,-5.20091 0.95935,-7.71501c-0.11229,-4.1635 0.60212,-8.78682 0.04065,-12.88226c-0.33027,-2.40897 -2.70855,-6.22698 -3.97673,-8.25838c-3.4922,-5.59389 -8.35788,-9.09675 -12.92342,-13.63968c-1.52375,-1.5162 -3.27771,-4.07612 -5.08203,-5.21898c-4.99811,-3.16583 -11.10687,-6.72706 -14.69899,-11.69899c-2.47546,-3.42634 -3.10359,-6.33492 -4.31884,-10.18396c0.04219,-6.16058 -0.63838,-7.17927 3.14185,-13.33005c2.35985,-3.83969 6.038,-5.15078 8.95801,-8.17462l2,-2c0,0 5.3033,-5.3033 10.6066,0z" data-paper-data="{&quot;index&quot;:null}" fill="#099800" stroke="none" stroke-width="0.5"/><path d="M409.5,415v-90h142v90z" fill="#8e5900" stroke="#6a4300" stroke-width="5.5"/></g></g></svg>