<svg version="1.1" xmlns="http://www.w3.org/2000/svg" xmlns:xlink="http://www.w3.org/1999/xlink" width="147.5" height="236.41032" viewBox="0,0,147.5,236.41032"><g transform="translate(-406.75,-181.33967)"><g data-paper-data="{&quot;isPaintingLayer&quot;:true}" fill-rule="nonzero" stroke-linecap="butt" stroke-linejoin="miter" stroke-miterlimit="10" stroke-dasharray="" stroke-dashoffset="0" style="mix-blend-mode: normal"><path d="M471.1967,183.6967c5.3033,-5.3033 10.6066,0 10.6066,0l2,2c2.92001,3.02384 6.59816,4.33493 8.95801,8.17462c3.78023,6.15078 3.09966,7.16947 3.14185,13.33005c-1.21525,3.84904 -1.84338,6.75762 -4.31884,10.18396c-3.59212,4.97193 -9.70088,8.53316 -14.69899,11.69899c-1.80432,1.14286 -3.55828,3.70278 -5.08203,5.21898c-4.56554,4.54293 -9.43122,8.04579 -12.92342,13.63968c-1.26818,2.0314 -3.64646,5.84941 -3.97673,8.25838c-0.56147,4.09544 0.15294,8.71876 0.04065,12.88226c0.62853,2.5141 0.64786,5.14232 0.95935,7.71501c0.2534,2.0929 1.63011,3.92452 2,6c0.32954,1.8491 -0.08204,3.86163 0.63098,5.59927c1.09679,2.67291 2.09461,5.40561 3.5041,7.92766c0.84854,1.51834 2.24298,2.68298 3.10511,4.19364c0.4366,0.76503 0.29526,1.77548 0.73654,2.53782c0.3092,0.53416 1.03123,0.70885 1.42018,1.18807c1.76347,2.17271 3.1157,4.65744 4.86584,6.8409c1.23103,1.53582 1.78771,1.44452 3.66589,2.79147c3.399,2.4376 5.37047,4.72161 9.02231,6.41434c0,0 6.7082,3.3541 3.3541,10.06231c-3.3541,6.7082 -10.06231,3.3541 -10.06231,3.3541c-4.4115,-2.30069 -7.00829,-4.76228 -10.97769,-7.58566c-3.33462,-2.37187 -3.65209,-2.06293 -6.33411,-5.20853c-1.90528,-2.23461 -3.31372,-4.85484 -5.13416,-7.1591c-0.78855,-0.99812 -1.91537,-1.72724 -2.57982,-2.81193c-0.64171,-1.04759 -0.65341,-2.39585 -1.26346,-3.46218c-0.79157,-1.38362 -2.12398,-2.41113 -2.89489,-3.80636c-1.77814,-3.21816 -3.2669,-6.6071 -4.4959,-10.07234c-0.94837,-2.67399 -0.95442,-5.594 -1.36902,-8.40073c-0.30807,-2.08555 -1.67273,-3.91737 -2,-6c-0.43208,-2.74962 -0.36559,-5.58473 -1.04065,-8.28499c-0.07744,-5.3969 -0.90149,-11.79794 0.04065,-17.11774c1.52471,-8.60931 8.18622,-18.14857 14.18334,-24.18412c1.27179,-1.27994 2.9348,-2.10738 4.30581,-3.28042c3.32034,-2.84091 5.92229,-6.92603 9.52869,-9.41841c1.22634,-0.84753 2.7852,-1.136 4,-2c1.027,-0.73043 1.66426,-1.90655 2.63041,-2.71575c3.25183,-2.72357 4.75144,-3.35063 6.35176,-7.4013c0.36588,-3.61602 -5.796,-6.43381 -7.90014,-8.49533l-2,-2c0,0 -5.3033,-5.3033 0,-10.6066z" fill="#099800" stroke="none" stroke-width="0.5"/><path d="M409.5,415v-90h142v90z" fill="#8e5900" stroke="#6a4300" stroke-width="5.5"/></g></g></svg>